# xmcd CD database file
#
# Track frame offsets:
#	150
#	15448
#	31081
#	47447
#	75675
#	95198
#	114490
#	125385
#	137000
#	153166
#	168819
#	189184
#	205690
#	225950
#	240108
#	254351
#	271804
#
# Disc length: 3886 seconds
#
# Revision: 0
# Processed by: cddbd v1.5.1PL0 Copyright (c) Steve Scherf et al.
# Submitted via: CDex 1.51
#
DISCID=bd0f2c11
DTITLE=Laura Fygi - At Ronnie Scott's (2)
DYEAR=2003
DGENRE=Jazz
TTITLE0=Girl talk
TTITLE1=Every moment
TTITLE2=How do I win your heart
TTITLE3=He saw her there
TTITLE4=I belong
TTITLE5=Etemal hoeny moon
TTITLE6=Loved youso long
TTITLE7=Remember me
TTITLE8=Midnight stroll
TTITLE9=Enfant temible
TTITLE10=Only you in my heart
TTITLE11=Latin eye
TTITLE12=You can't judge
TTITLE13=No small talk please
TTITLE14=Historia deun amor
TTITLE15=Do it again
TTITLE16=Still
EXTD=YEAR: 2003
EXTT0=
EXTT1=
EXTT2=
EXTT3=
EXTT4=
EXTT5=
EXTT6=
EXTT7=
EXTT8=
EXTT9=
EXTT10=
EXTT11=
EXTT12=
EXTT13=
EXTT14=
EXTT15=
EXTT16=
PLAYORDER=
